<?xml version="1.0" encoding="utf-8"?>
<!-- Generator: Adobe Illustrator 23.0.0, SVG Export Plug-In . SVG Version: 6.00 Build 0)  -->
<svg version="1.1" id="Layer_1" xmlns="http://www.w3.org/2000/svg" xmlns:xlink="http://www.w3.org/1999/xlink" x="0px" y="0px"
	 viewBox="0 0 334 357" style="enable-background:new 0 0 334 357;" xml:space="preserve">
<style type="text/css">
	.st0{fill:url(#SVGID_1_);}
	.st1{fill:url(#SVGID_2_);}
</style>
<g>
	<linearGradient id="SVGID_1_" gradientUnits="userSpaceOnUse" x1="75.2855" y1="292.929" x2="261.2855" y2="60.929">
		<stop  offset="0" style="stop-color:#FC0F1B"/>
		<stop  offset="1" style="stop-color:#FD8424"/>
	</linearGradient>
	<path class="st0" d="M0,226c0-31.3,0-62.7,0-94c0.4-3.4,0.7-6.9,1.3-10.4C6.2,92,21.8,69.9,47.9,55.1C70.8,42.1,93.5,29,116.2,15.8
		C126.5,9.8,137,4.6,148.8,2.4c5.7-1,11.4-1.6,17.2-2.4c0.3,0,0.7,0,1,0c0.9,0.2,1.9,0.6,2.8,0.6c16.6,0.3,31.6,5.6,45.8,13.9
		c20.8,12.2,41.7,24.2,62.7,36.1c12.8,7.3,25.2,14.8,34.7,26.4c14.3,17.5,20.7,37.7,20.9,60.1c0.2,27.7,0.1,55.3,0,83
		c0,5.3-0.3,10.7-1.2,15.9c-5,29-20.2,50.9-45.8,65.5c-20.3,11.6-40.6,23.4-60.9,35.1c-12.5,7.2-24.8,15.1-39.3,17.8
		c-5.5,1-11.1,1.8-16.7,2.6c-2,0-4,0-6,0c-1.3-0.3-2.6-0.7-3.9-0.8c-14.1-0.8-27-5.2-39.1-12.2c-25.2-14.5-50.4-28.8-75.4-43.4
		c-19.1-11.1-32.8-27-39.9-48C2.8,244.1,1.8,234.9,0,226z M94,178.5c0,25.1,0,50.3,0,75.4c0,2.3,0.1,4.7,0.6,6.9
		c5,19.7,26.1,28.4,44.3,18c43.4-24.8,86.7-49.7,129.9-74.9c20.9-12.2,20.6-39.6-0.3-51.7c-20.8-12.1-41.7-24.1-62.6-36.1
		c-22.6-13-45.1-26.2-67.8-39C117.6,65.7,94,79.7,94,103.1C94,128.2,94,153.4,94,178.5z M143.8,292.8
		c62.1,12.8,119.2-27.2,133.9-77.8c-11.5,6.9-22.3,13.3-33,19.8c-0.7,0.4-1,1.3-1.5,2c-14.6,18.6-33.4,30.8-56.7,35.2
		c-7.3,1.4-13.9,3.9-20.2,7.8C159.3,284,152.1,288,143.8,292.8z M145.8,64c2.5,1.6,3.9,2.6,5.5,3.5c8.2,4.8,16.3,9.6,24.6,14.2
		c2.1,1.2,4.5,2,6.9,2.4c17.9,3.3,34.3,10.1,47.4,22.8c10.4,10.1,20.8,19.8,34.1,26.2c4.2,2,8.1,4.6,12.7,7.1
		C262.4,90.6,204.9,52,145.8,64z M77.9,253.4c0-12.1,0.1-23-0.1-34c-0.1-3.4-0.7-6.9-1.8-10.2c-5.9-18.7-6.8-37.5-1.4-56.5
		c1.2-4.3,2.9-8.6,3.1-13c0.4-10.6,0.2-21.3,0.1-32c0-1.2-0.3-2.4-0.4-4.1C39.8,147.1,42,213.4,77.9,253.4z"/>
	<linearGradient id="SVGID_2_" gradientUnits="userSpaceOnUse" x1="70.1337" y1="288.7987" x2="256.1338" y2="56.7987">
		<stop  offset="0" style="stop-color:#FC0F1B"/>
		<stop  offset="1" style="stop-color:#FD8424"/>
	</linearGradient>
	<path class="st1" d="M115.8,178c0-24.5,0.3-49-0.2-73.4c-0.2-7.6,6.3-11.8,13.4-7.7c42.5,24.8,85.1,49.2,127.7,73.7
		c7.8,4.5,7.8,10.9-0.1,15.4c-42.4,24.5-84.9,48.8-127.2,73.5c-6.8,4-13.9,1.2-13.7-8.1C116.1,227,115.8,202.5,115.8,178z"/>
</g>
</svg>
